<mxfile host="app.diagrams.net" modified="2024-01-11T10:11:39.234Z" agent="Mozilla/5.0 (Windows NT 10.0; Win64; x64) AppleWebKit/537.36 (KHTML, like Gecko) Chrome/120.0.0.0 Safari/537.36" version="22.1.18" etag="5ZpmsRTYH6YwRy5HjD_U" type="github">
  <diagram name="Page-1" id="HWiBN0I6frRtDIa0g5U3">
    <mxGraphModel>
      <root>
        <mxCell id="0" />
        <mxCell id="1" parent="0" />
      </root>
    </mxGraphModel>
  </diagram>
</mxfile>
